<mxfile host="drawio-plugin" modified="2022-02-23T15:36:42.504Z" agent="5.0 (Macintosh; Intel Mac OS X 12_0_1) AppleWebKit/537.36 (KHTML, like Gecko) Chrome/89.0.4389.114 Safari/537.36" etag="5w4K76-B6nFdQRrde1F6" version="15.5.4" type="embed"><diagram id="DWjpSvbVxY2pOprUcE6g" name="Page-1"><mxGraphModel dx="1076" dy="595" grid="1" gridSize="10" guides="1" tooltips="1" connect="1" arrows="1" fold="1" page="1" pageScale="1" pageWidth="827" pageHeight="1169" math="0" shadow="0"><root><mxCell id="0"/><mxCell id="1" parent="0"/><mxCell id="2" value="" style="rounded=0;whiteSpace=wrap;html=1;fillColor=none;strokeColor=none;sketch=1;fontFamily=Architects Daughter;fontSource=https%3A%2F%2Ffonts.googleapis.com%2Fcss%3Ffamily%3DArchitects%2BDaughter;" parent="1" vertex="1"><mxGeometry x="56" y="197" width="889" height="337" as="geometry"/></mxCell><mxCell id="WkdalmxvpJmTztUUumEF-3" value="Domain" style="ellipse;whiteSpace=wrap;html=1;verticalAlign=top;sketch=1;fontFamily=Architects Daughter;fontSource=https%3A%2F%2Ffonts.googleapis.com%2Fcss%3Ffamily%3DArchitects%2BDaughter;strokeColor=#FFD966;fillColor=#FFEB99;" parent="1" vertex="1"><mxGeometry x="240" y="210" width="575.5" height="310" as="geometry"/></mxCell><mxCell id="5" value="" style="group" vertex="1" connectable="0" parent="1"><mxGeometry x="470" y="330" width="120" height="60" as="geometry"/></mxCell><mxCell id="3" value="Operational &lt;br&gt;Data" style="rounded=0;whiteSpace=wrap;html=1;fontStyle=1;sketch=1;fontFamily=Architects Daughter;fontSource=https%3A%2F%2Ffonts.googleapis.com%2Fcss%3Ffamily%3DArchitects%2BDaughter;align=left;spacingLeft=42;" vertex="1" parent="5"><mxGeometry width="120" height="60" as="geometry"/></mxCell><mxCell id="4" value="" style="shape=image;verticalLabelPosition=bottom;labelBackgroundColor=default;verticalAlign=top;aspect=fixed;imageAspect=0;image=data:image/svg+xml,PHN2ZyB4bWxucz0iaHR0cDovL3d3dy53My5vcmcvMjAwMC9zdmciIHZpZXdCb3g9IjAgMCAyNTAgMjUwIj4mI3hhOyAgJiN4YTs8ZyB0cmFuc2Zvcm09Im1hdHJpeCgxMC40MTY2NjY2NjY2NjY2NjYsMCwwLDEwLjQxNjY2NjY2NjY2NjY2NiwwLDApIj48Zz4mI3hhOyAgICA8cGF0aCBkPSJNMTguMzQsNS41NmMtLjYuMTMtMS4wNS44NS0uNTYsMS4zNGExLjIyLDEuMjIsMCwwLDAsLjUzLjNDMTkuODcsNy41NSwxOS42OSw1LjI5LDE4LjM0LDUuNTZaIiBzdHlsZT0iZmlsbDogIzAwMDAwMDtmaWxsLXJ1bGU6IGV2ZW5vZGQiLz4mI3hhOyAgICA8cGF0aCBkPSJNMjMuOTIsNy41NEE5LjM3LDkuMzcsMCwwLDAsMjIsNi4yNGMuODgtLjU5LDEuNjMtLjg5LDEuNjMtMS42NWEzLjU2LDMuNTYsMCwwLDAtMS0yLjEyYy0uNzEtLjUyLTEuMTktLjExLTIuMTkuNDcsMC0uODQuMS0xLjUzLS41Ny0xLjk1QTQuMzUsNC4zNSwwLDAsMCwxNy40Ny41M2MtMS4wNy4yNS0xLDEuMTgtMSwyLjQ1bC0xLjA4LS42NmMtMS4xMy0uNTgtMiwuNTgtMi4zMSwxLjgtLjI0Ljg5LjEsMS4yMy44OCwxLjcycy4yOC4wOS40MywxYy0xLjg1LDEuMjMtMS42LDEtLjcxLDIuNzhhMy40NiwzLjQ2LDAsMCwwLC44Mi43OSwxLjM5LDEuMzksMCwwLDAsMS40NC0uMTljLjc5LS40OS42OC0uNjYuNjktLjNzLS4wNywxLC4zLDEuMjNjLjU4LjM2LDIuNjguNDksMy4wOC0uMjIuMjEtLjM3LjIzLS4zNy4xNy0xYS4zMi4zMiwwLDAsMC0uNjQuMDZjMCwuNDgsMCwuMzItLjEuNTYtLjI0LjM5LTEuNy0uMTEtMi0uMTUsMC0uMTcsMCwuNiwwLTEuNTVhLjQyLjQyLDAsMCwwLS42Ni0uMzVjLS41LjMzLTEuMywxLTEuNzcsMS4wOHMtLjc2LTEuMjQtLjg3LTEuNDVjLjU0LS4yNCwwLC4xMSwxLjE1LS42M2EuNTYuNTYsMCwwLDAsLjIyLS42NGMtLjIyLS42OS4yNy0xLS4xOS0xLjQyLS44OC0uNy0uNjMtLjUxLTEuMTQtLjg5YTIuODMsMi44MywwLDAsMSwuNTEtMS4wOGMwLS4wNS4wNy0uMTIuMTMtLjA5LDIuMDYsMS4yOSwxLjc2LDEuMjIsMi40Ni45NXMuMzgtMi42NC40OC0yLjY2QTQuMSw0LjEsMCwwLDEsMTkuMjEsMmMuMDYsMi4yLjE3LDIuMjYuNDQsMi40YS41OC41OCwwLDAsMCwuNTgsMGMxLjgxLTEuMTQsMS43LTEuMSwxLjgyLTFzLjMuMzIuNTksMS4yMmMtMS4zNywxLTEuNSwxLTEuNTQsMS4zMS0uMTQsMS0uMy43MSwyLDJhMi40OCwyLjQ4LDAsMCwxLS44MywxLjUxLDEzLjQ5LDEzLjQ5LDAsMCwxLTEuOC0xLjA2LjM2LjM2LDAsMCwwLS40MS42QTEyLjg1LDEyLjg1LDAsMCwwLDIyLDEwLjE4QzIzLDEwLjYsMjQuMzYsOC4zNiwyMy45Miw3LjU0WiIgc3R5bGU9ImZpbGw6ICMwMDAwMDA7ZmlsbC1ydWxlOiBldmVub2RkIi8+JiN4YTsgICAgPHBhdGggZD0iTTUuNzgsMTEuMTNBLjg2Ljg2LDAsMCwwLDUuNTksMTBhLjguOCwwLDAsMC0xLDEuMjRDNSwxMS42Miw1LjQzLDExLjUyLDUuNzgsMTEuMTNaIiBzdHlsZT0iZmlsbDogIzMzOTdGQTtmaWxsLXJ1bGU6IGV2ZW5vZGQiLz4mI3hhOyAgICA8cGF0aCBkPSJNNC42MSwxNi4xYy4zNS40My44MS4zMywxLjE3LS4wNmEuODYuODYsMCwwLDAtLjE5LTEuMThBLjguOCwwLDAsMCw0LjYxLDE2LjFaIiBzdHlsZT0iZmlsbDogIzMzOTdGQTtmaWxsLXJ1bGU6IGV2ZW5vZGQiLz4mI3hhOyAgICA8cGF0aCBkPSJNNC43MSwyMC43NGEuNzIuNzIsMCwwLDAsMS4xNy0uMDYuODYuODYsMCwwLDAtLjE5LTEuMThBLjguOCwwLDAsMCw0LjcxLDIwLjc0WiIgc3R5bGU9ImZpbGw6ICMzMzk3RkE7ZmlsbC1ydWxlOiBldmVub2RkIi8+JiN4YTsgICAgPHBhdGggZD0iTTMuMjQsMTEuMzVhLjg2Ljg2LDAsMCwwLS4xOS0xLjE4LjguOCwwLDAsMC0xLDEuMjRDMi40MiwxMS44NCwyLjg5LDExLjc0LDMuMjQsMTEuMzVaIiBzdHlsZT0iZmlsbDogIzMzOTdGQTtmaWxsLXJ1bGU6IGV2ZW5vZGQiLz4mI3hhOyAgICA8cGF0aCBkPSJNMi4xOCwxNi4wOEEuNzIuNzIsMCwwLDAsMy4zNSwxNmEuODYuODYsMCwwLDAtLjE5LTEuMThBLjguOCwwLDAsMCwyLjE4LDE2LjA4WiIgc3R5bGU9ImZpbGw6ICMzMzk3RkE7ZmlsbC1ydWxlOiBldmVub2RkIi8+JiN4YTsgICAgPHBhdGggZD0iTTIuMjksMjAuNzFjLjM0LjQzLjgxLjMzLDEuMTctLjA1YS44OC44OCwwLDAsMC0uMi0xLjE5QS43OS43OSwwLDAsMCwyLjI5LDIwLjcxWiIgc3R5bGU9ImZpbGw6ICMzMzk3RkE7ZmlsbC1ydWxlOiBldmVub2RkIi8+JiN4YTsgICAgPHBhdGggZD0iTTE0Ljg0LDEzLjA2Yy0uMzMsNi4yNi0uMzcsOC4zMS0uODUsOC43NmEzLjIyLDMuMjIsMCwwLDEtMS40Ni41N2MtLjYyLjA5LS40OS4wNi04LjEzLS4wNS0uNDgsMC0yLjc3LjEyLTMtLjRDMSwyMS4xMywxLDE4LjgsMSwxNy44OGE2LjE4LDYuMTgsMCwwLDAsLjg0LDAsMzguMTksMzguMTksMCwwLDAsNy43LjM2YzEuMTYtLjA5LDQuMzItLjI0LDQuNi0uNjMuMTMtLjIuMTMtLjM2LS4xLS41YTUuNzIsNS43MiwwLDAsMC0xLjYzLjFjLTIuMjQsMC05LjEzLS4xMi0xMS4zNi4wNS0uMSwwLS4wNi41OC0uMTctNi42NywwLTEuMjQuMTYtMS4yMiwwLTEuMzlhLjI4LjI4LDAsMCwwLS4zNSwwQy4xOCw5LjQuMjUsOS42NywwLDE5LjZhNy45Miw3LjkyLDAsMCwwLC4zOSwyLjgzYy41NiwxLjE3LDIuNzMsMS4wNiw0LDEuMDcsNy4zOSwwLDcuNzQuMDUsOC41OC0uMTRhMy43NywzLjc3LDAsMCwwLDEuNzktLjk1Yy43My0uODguNTktMy4xMi43NS05LjMzQS4zNC4zNCwwLDAsMCwxNC44NCwxMy4wNloiIHN0eWxlPSJmaWxsOiAjMDAwMDAwO2ZpbGwtcnVsZTogZXZlbm9kZCIvPiYjeGE7ICAgIDxwYXRoIGQ9Ik0xLjg3LDguNzdhNjEuMTEsNjEuMTEsMCwwLDAsOS4yNC0uMjcuMy4zLDAsMCwwLDAtLjYsMzMuNywzMy43LDAsMCwwLTQuNjUtLjIyYy0yLC4wNi00LjQzLjQtNC42LjQxQS4zNC4zNCwwLDAsMCwxLjg3LDguNzdaIiBzdHlsZT0iZmlsbDogIzAwMDAwMDtmaWxsLXJ1bGU6IGV2ZW5vZGQiLz4mI3hhOyAgICA8cGF0aCBkPSJNMTIuODksMTMuMzZhLjM0LjM0LDAsMCwwLDAtLjY4bC01LjQ0LS4xNGMtMS4yMywwLTUsLjA4LTUuMjkuMTRhLjMuMywwLDAsMC0uMTYuNTdjLjA4LDAsMy43NS40NSw1LjQ0LjQ0QzkuNTgsMTMuNjgsMTEuNDcsMTMuNDksMTIuODksMTMuMzZaIiBzdHlsZT0iZmlsbDogIzAwMDAwMDtmaWxsLXJ1bGU6IGV2ZW5vZGQiLz4mI3hhOyAgPC9nPjwvZz48L3N2Zz4=;" vertex="1" parent="5"><mxGeometry x="8" y="16" width="28" height="28" as="geometry"/></mxCell></root></mxGraphModel></diagram></mxfile>